# xmcd CD database file
#
# Track frame offsets:
#	150
#	21370
#	41043
#	61757
#	76357
#	105813
#	131312
#	149156
#	165557
#	189010
#	212092
#	232492
#	258780
#	276058
#	291863
#	315174
#
# Disc length: 4589 seconds
#
# Revision: 1
# Processed by: cddbd v1.4PL0 Copyright (c) Steve Scherf et al.
# Submitted via: CDex 1.40Beta8
#
DISCID=da11eb10
DTITLE=Tom Waits - Used Songs
DYEAR=2001
DGENRE=
TTITLE0=Heartattack And Vine
TTITLE1=Eggs And Sausage (In A Cadillac With Susan Michelson)
TTITLE2=A Sight For Sore Eyes
TTITLE3=Whistlin' Past The Graveyard
TTITLE4=Burma Shave
TTITLE5=Step Right Up
TTITLE6=Ol' 55
TTITLE7=I Never Talk To Strangers - with Bette Midler
TTITLE8=Mr. Siegal
TTITLE9=Jersey Girl
TTITLE10=Christmas Card From A Hooker In Minneapolis
TTITLE11=Blue Valentines
TTITLE12=(Looking For) The Heart Of Saturday Night
TTITLE13=Muriel
TTITLE14=Wrong Side Of The Road
TTITLE15=Tom Traubert's Blues (Four Sheets To The Wind In Copenhagen)
EXTD=YEAR: 2001
EXTT0=
EXTT1=
EXTT2=
EXTT3=
EXTT4=
EXTT5=
EXTT6=
EXTT7=
EXTT8=
EXTT9=
EXTT10=
EXTT11=
EXTT12=
EXTT13=
EXTT14=
EXTT15=
PLAYORDER=
